<?xml version="1.0" encoding="utf-8"?>
<!-- Generator: Adobe Illustrator 24.0.0, SVG Export Plug-In . SVG Version: 6.00 Build 0)  -->
<svg version="1.1" id="Layer_1" xmlns="http://www.w3.org/2000/svg" xmlns:xlink="http://www.w3.org/1999/xlink" x="0px" y="0px"
	 viewBox="0 0 40.83 135.08" style="enable-background:new 0 0 40.83 135.08;" xml:space="preserve">
<style type="text/css">
	.st0{fill:#FFFFFF;}
</style>
<g>
	<path class="st0" d="M0,73.35V61.88c3.38,0,6.23-0.83,8.55-2.5c2.32-1.67,3.9-4.13,4.72-7.39c0.82-3.26,1.25-9.05,1.3-17.35
		c0.09-9.95,0.43-16.53,1.02-19.75c0.59-3.22,1.94-6.14,4.05-8.76c1.83-2.3,3.99-3.9,6.48-4.79C28.6,0.45,32.17,0,36.81,0h4.01
		v10.98H38.5c-4.93,0-8.15,0.93-9.68,2.78c-1.52,1.85-2.29,5.78-2.29,11.78v10.34c0,6.24-0.45,11.34-1.34,15.3
		c-0.89,3.96-2.31,7.2-4.26,9.71c-1.95,2.51-5.03,4.75-9.26,6.72c5.54,2.3,9.4,5.77,11.58,10.42c2.19,4.65,3.27,11.79,3.27,21.41
		v10.15c0,6.01,0.75,9.93,2.25,11.76c1.5,1.83,4.74,2.75,9.71,2.75h2.32v10.98h-4.01c-4.79,0-8.44-0.46-10.95-1.37
		c-2.51-0.92-4.66-2.55-6.44-4.89c-2.02-2.67-3.31-5.61-3.87-8.8c-0.56-3.19-0.89-9.64-0.99-19.36c-0.05-8.45-0.5-14.29-1.37-17.53
		c-0.87-3.24-2.52-5.68-4.96-7.32C5.79,74.17,3.05,73.35,0,73.35z"/>
</g>
</svg>
